<svg xmlns="http://www.w3.org/2000/svg" xmlns:xlink="http://www.w3.org/1999/xlink" width="140" zoomAndPan="magnify" viewBox="0 0 104.88 30.000001" height="40" preserveAspectRatio="xMidYMid meet" version="1.0"><defs><g/><clipPath id="f508e66923"><path d="M 87.195312 11 L 89 11 L 89 13 L 87.195312 13 Z M 87.195312 11 " clip-rule="nonzero"/></clipPath><clipPath id="ff78ff086d"><path d="M 88 11 L 90.824219 11 L 90.824219 13 L 88 13 Z M 88 11 " clip-rule="nonzero"/></clipPath><clipPath id="a3110251f2"><path d="M 87.195312 9.710938 L 90.824219 9.710938 L 90.824219 13.339844 L 87.195312 13.339844 Z M 87.195312 9.710938 " clip-rule="nonzero"/></clipPath></defs><g fill="#7a2f00" fill-opacity="1"><g transform="translate(16.751525, 17.250001)"><g><path d="M 5.265625 -0.96875 C 5.941406 -0.96875 6.507812 -1.269531 6.96875 -1.875 C 7.070312 -2 7.1875 -2.019531 7.3125 -1.9375 L 7.8125 -1.59375 C 7.925781 -1.519531 7.953125 -1.414062 7.890625 -1.28125 C 7.578125 -0.820312 7.15625 -0.457031 6.625 -0.1875 C 6.101562 0.0703125 5.523438 0.203125 4.890625 0.203125 C 4.296875 0.203125 3.738281 0.09375 3.21875 -0.125 C 2.695312 -0.351562 2.238281 -0.664062 1.84375 -1.0625 C 1.445312 -1.457031 1.140625 -1.914062 0.921875 -2.4375 C 0.703125 -2.96875 0.59375 -3.53125 0.59375 -4.125 C 0.59375 -4.726562 0.703125 -5.285156 0.921875 -5.796875 C 1.140625 -6.316406 1.445312 -6.773438 1.84375 -7.171875 C 2.238281 -7.566406 2.703125 -7.875 3.234375 -8.09375 C 3.765625 -8.3125 4.332031 -8.421875 4.9375 -8.421875 C 5.46875 -8.421875 5.988281 -8.332031 6.5 -8.15625 C 7.007812 -7.988281 7.421875 -7.757812 7.734375 -7.46875 C 7.828125 -7.375 7.832031 -7.269531 7.75 -7.15625 L 7.25 -6.609375 C 7.195312 -6.554688 7.140625 -6.53125 7.078125 -6.53125 C 7.015625 -6.53125 6.953125 -6.554688 6.890625 -6.609375 C 6.421875 -7.046875 5.882812 -7.265625 5.28125 -7.265625 C 4.820312 -7.265625 4.414062 -7.132812 4.0625 -6.875 C 3.71875 -6.613281 3.453125 -6.25 3.265625 -5.78125 C 3.078125 -5.320312 2.984375 -4.773438 2.984375 -4.140625 C 2.984375 -3.503906 3.078125 -2.945312 3.265625 -2.46875 C 3.460938 -1.988281 3.734375 -1.617188 4.078125 -1.359375 C 4.421875 -1.097656 4.816406 -0.96875 5.265625 -0.96875 Z M 5.265625 -0.96875 "/></g></g></g><g fill="#7a2f00" fill-opacity="1"><g transform="translate(25.152013, 17.250001)"><g><path d="M 2.875 -7.984375 L 2.875 -0.234375 C 2.875 -0.078125 2.796875 0 2.640625 0 L 0.9375 0 C 0.78125 0 0.703125 -0.078125 0.703125 -0.234375 L 0.703125 -7.984375 C 0.703125 -8.140625 0.78125 -8.21875 0.9375 -8.21875 L 2.640625 -8.21875 C 2.796875 -8.21875 2.875 -8.140625 2.875 -7.984375 Z M 2.875 -7.984375 "/></g></g></g><g fill="#7a2f00" fill-opacity="1"><g transform="translate(28.735438, 17.250001)"><g><path d="M 0.625 -8.21875 L 2.46875 -8.21875 C 2.582031 -8.21875 2.648438 -8.164062 2.671875 -8.0625 L 4.234375 -3.390625 C 4.296875 -3.203125 4.367188 -3.109375 4.453125 -3.109375 C 4.535156 -3.109375 4.609375 -3.203125 4.671875 -3.390625 L 6.21875 -8.0625 C 6.257812 -8.164062 6.332031 -8.21875 6.4375 -8.21875 L 7.171875 -8.21875 C 7.273438 -8.21875 7.347656 -8.1875 7.390625 -8.125 C 7.429688 -8.070312 7.4375 -8 7.40625 -7.90625 L 4.6875 -0.15625 C 4.644531 -0.0507812 4.570312 0 4.46875 0 L 3.34375 0 C 3.226562 0 3.148438 -0.0507812 3.109375 -0.15625 L 0.40625 -7.90625 C 0.375 -8 0.375 -8.070312 0.40625 -8.125 C 0.445312 -8.1875 0.519531 -8.21875 0.625 -8.21875 Z M 0.625 -8.21875 "/></g></g></g><g fill="#7a2f00" fill-opacity="1"><g transform="translate(36.536739, 17.250001)"><g><path d="M 2.875 -7.984375 L 2.875 -0.234375 C 2.875 -0.078125 2.796875 0 2.640625 0 L 0.9375 0 C 0.78125 0 0.703125 -0.078125 0.703125 -0.234375 L 0.703125 -7.984375 C 0.703125 -8.140625 0.78125 -8.21875 0.9375 -8.21875 L 2.640625 -8.21875 C 2.796875 -8.21875 2.875 -8.140625 2.875 -7.984375 Z M 2.875 -7.984375 "/></g></g></g><g fill="#7a2f00" fill-opacity="1"><g transform="translate(40.120165, 17.250001)"><g><path d="M 5.265625 -0.96875 C 5.941406 -0.96875 6.507812 -1.269531 6.96875 -1.875 C 7.070312 -2 7.1875 -2.019531 7.3125 -1.9375 L 7.8125 -1.59375 C 7.925781 -1.519531 7.953125 -1.414062 7.890625 -1.28125 C 7.578125 -0.820312 7.15625 -0.457031 6.625 -0.1875 C 6.101562 0.0703125 5.523438 0.203125 4.890625 0.203125 C 4.296875 0.203125 3.738281 0.09375 3.21875 -0.125 C 2.695312 -0.351562 2.238281 -0.664062 1.84375 -1.0625 C 1.445312 -1.457031 1.140625 -1.914062 0.921875 -2.4375 C 0.703125 -2.96875 0.59375 -3.53125 0.59375 -4.125 C 0.59375 -4.726562 0.703125 -5.285156 0.921875 -5.796875 C 1.140625 -6.316406 1.445312 -6.773438 1.84375 -7.171875 C 2.238281 -7.566406 2.703125 -7.875 3.234375 -8.09375 C 3.765625 -8.3125 4.332031 -8.421875 4.9375 -8.421875 C 5.46875 -8.421875 5.988281 -8.332031 6.5 -8.15625 C 7.007812 -7.988281 7.421875 -7.757812 7.734375 -7.46875 C 7.828125 -7.375 7.832031 -7.269531 7.75 -7.15625 L 7.25 -6.609375 C 7.195312 -6.554688 7.140625 -6.53125 7.078125 -6.53125 C 7.015625 -6.53125 6.953125 -6.554688 6.890625 -6.609375 C 6.421875 -7.046875 5.882812 -7.265625 5.28125 -7.265625 C 4.820312 -7.265625 4.414062 -7.132812 4.0625 -6.875 C 3.71875 -6.613281 3.453125 -6.25 3.265625 -5.78125 C 3.078125 -5.320312 2.984375 -4.773438 2.984375 -4.140625 C 2.984375 -3.503906 3.078125 -2.945312 3.265625 -2.46875 C 3.460938 -1.988281 3.734375 -1.617188 4.078125 -1.359375 C 4.421875 -1.097656 4.816406 -0.96875 5.265625 -0.96875 Z M 5.265625 -0.96875 "/></g></g></g><g fill="#7a2f00" fill-opacity="1"><g transform="translate(48.520652, 17.250001)"><g><path d="M 1.0625 -8.21875 L 2.765625 -8.21875 C 2.921875 -8.21875 3 -8.140625 3 -7.984375 L 3 -1.296875 C 3 -1.140625 3.078125 -1.0625 3.234375 -1.0625 L 6.40625 -1.0625 C 6.5625 -1.0625 6.640625 -0.984375 6.640625 -0.828125 L 6.640625 -0.234375 C 6.640625 -0.078125 6.5625 0 6.40625 0 L 1.0625 0 C 0.90625 0 0.828125 -0.078125 0.828125 -0.234375 L 0.828125 -7.984375 C 0.828125 -8.140625 0.90625 -8.21875 1.0625 -8.21875 Z M 1.0625 -8.21875 "/></g></g></g><g fill="#7a2f00" fill-opacity="1"><g transform="translate(55.452527, 17.250001)"><g><path d="M 4.5625 -3.578125 L 3.234375 -3.578125 C 3.078125 -3.578125 3 -3.5 3 -3.34375 L 3 -1.296875 C 3 -1.140625 3.078125 -1.0625 3.234375 -1.0625 L 6.328125 -1.0625 C 6.484375 -1.0625 6.5625 -0.984375 6.5625 -0.828125 L 6.5625 -0.234375 C 6.5625 -0.078125 6.484375 0 6.328125 0 L 1.0625 0 C 0.90625 0 0.828125 -0.078125 0.828125 -0.234375 L 0.828125 -7.984375 C 0.828125 -8.140625 0.90625 -8.21875 1.0625 -8.21875 L 6.09375 -8.21875 C 6.25 -8.21875 6.328125 -8.140625 6.328125 -7.984375 L 6.328125 -7.40625 C 6.328125 -7.25 6.25 -7.171875 6.09375 -7.171875 L 3.234375 -7.171875 C 3.078125 -7.171875 3 -7.09375 3 -6.9375 L 3 -4.875 C 3 -4.71875 3.078125 -4.640625 3.234375 -4.640625 L 4.5625 -4.640625 C 4.71875 -4.640625 4.796875 -4.5625 4.796875 -4.40625 L 4.796875 -3.8125 C 4.796875 -3.65625 4.71875 -3.578125 4.5625 -3.578125 Z M 4.5625 -3.578125 "/></g></g></g><g fill="#7a2f00" fill-opacity="1"><g transform="translate(62.419653, 17.250001)"><g><path d="M 1.359375 0 L 0.625 0 C 0.519531 0 0.445312 -0.0234375 0.40625 -0.078125 C 0.375 -0.140625 0.375 -0.21875 0.40625 -0.3125 L 3.109375 -8.078125 C 3.148438 -8.171875 3.226562 -8.21875 3.34375 -8.21875 L 4.6875 -8.21875 C 4.800781 -8.21875 4.875 -8.171875 4.90625 -8.078125 L 7.625 -0.3125 C 7.65625 -0.21875 7.648438 -0.140625 7.609375 -0.078125 C 7.578125 -0.0234375 7.507812 0 7.40625 0 L 5.59375 0 C 5.476562 0 5.40625 -0.0546875 5.375 -0.171875 L 4.765625 -1.96875 C 4.742188 -2.082031 4.671875 -2.140625 4.546875 -2.140625 L 2.40625 -2.140625 C 2.300781 -2.140625 2.226562 -2.082031 2.1875 -1.96875 L 1.59375 -0.171875 C 1.550781 -0.0546875 1.472656 0 1.359375 0 Z M 4.265625 -3.5 L 3.703125 -5.203125 C 3.640625 -5.410156 3.5625 -5.515625 3.46875 -5.515625 C 3.382812 -5.515625 3.3125 -5.410156 3.25 -5.203125 L 2.703125 -3.5 C 2.671875 -3.40625 2.671875 -3.332031 2.703125 -3.28125 C 2.742188 -3.226562 2.816406 -3.203125 2.921875 -3.203125 L 4.046875 -3.203125 C 4.253906 -3.203125 4.328125 -3.300781 4.265625 -3.5 Z M 4.265625 -3.5 "/></g></g></g><g fill="#7a2f00" fill-opacity="1"><g transform="translate(70.44418, 17.250001)"><g><path d="M 7.265625 -5.75 C 7.265625 -5.3125 7.160156 -4.910156 6.953125 -4.546875 C 6.753906 -4.179688 6.484375 -3.890625 6.140625 -3.671875 C 6.015625 -3.578125 5.984375 -3.46875 6.046875 -3.34375 L 7.46875 -0.328125 C 7.507812 -0.222656 7.507812 -0.140625 7.46875 -0.078125 C 7.425781 -0.0234375 7.347656 0 7.234375 0 L 5.515625 0 C 5.421875 0 5.351562 -0.0390625 5.3125 -0.125 L 3.875 -3.15625 C 3.832031 -3.238281 3.765625 -3.28125 3.671875 -3.28125 L 3.21875 -3.28125 C 3.0625 -3.28125 2.984375 -3.203125 2.984375 -3.046875 L 2.984375 -0.234375 C 2.984375 -0.078125 2.90625 0 2.75 0 L 1.0625 0 C 0.90625 0 0.828125 -0.078125 0.828125 -0.234375 L 0.828125 -7.984375 C 0.828125 -8.140625 0.90625 -8.21875 1.0625 -8.21875 L 4.828125 -8.21875 C 5.285156 -8.21875 5.695312 -8.109375 6.0625 -7.890625 C 6.425781 -7.671875 6.71875 -7.375 6.9375 -7 C 7.15625 -6.625 7.265625 -6.207031 7.265625 -5.75 Z M 4.0625 -7.171875 L 3.21875 -7.171875 C 3.0625 -7.171875 2.984375 -7.09375 2.984375 -6.9375 L 2.984375 -4.578125 C 2.984375 -4.410156 3.0625 -4.328125 3.21875 -4.328125 L 4.0625 -4.328125 C 4.289062 -4.328125 4.484375 -4.46875 4.640625 -4.75 C 4.796875 -5.03125 4.875 -5.363281 4.875 -5.75 C 4.875 -6.132812 4.796875 -6.46875 4.640625 -6.75 C 4.484375 -7.03125 4.289062 -7.171875 4.0625 -7.171875 Z M 4.0625 -7.171875 "/></g></g></g><g fill="#7a2f00" fill-opacity="1"><g transform="translate(78.351213, 17.250001)"><g><path d="M 0.9375 -8.21875 L 2.890625 -8.21875 C 2.972656 -8.21875 3.039062 -8.179688 3.09375 -8.109375 L 5.71875 -3.71875 C 5.851562 -3.5 5.957031 -3.398438 6.03125 -3.421875 C 6.113281 -3.453125 6.15625 -3.59375 6.15625 -3.84375 L 6.15625 -7.984375 C 6.15625 -8.140625 6.234375 -8.21875 6.390625 -8.21875 L 7.078125 -8.21875 C 7.234375 -8.21875 7.3125 -8.140625 7.3125 -7.984375 L 7.3125 -0.234375 C 7.3125 -0.078125 7.234375 0 7.078125 0 L 5.4375 0 C 5.363281 0 5.296875 -0.0390625 5.234375 -0.125 L 2.296875 -5.015625 C 2.171875 -5.234375 2.066406 -5.332031 1.984375 -5.3125 C 1.898438 -5.289062 1.859375 -5.15625 1.859375 -4.90625 L 1.859375 -0.234375 C 1.859375 -0.078125 1.78125 0 1.625 0 L 0.9375 0 C 0.78125 0 0.703125 -0.078125 0.703125 -0.234375 L 0.703125 -7.984375 C 0.703125 -8.140625 0.78125 -8.21875 0.9375 -8.21875 Z M 0.9375 -8.21875 "/></g></g></g><g clip-path="url(#f508e66923)"><path fill="#7a2f00" d="M 88.574219 11.324219 L 88.574219 12.308594 L 88.199219 12.308594 L 88.199219 11.324219 L 87.933594 11.324219 L 87.933594 11.015625 L 88.84375 11.015625 L 88.84375 11.324219 L 88.574219 11.324219 " fill-opacity="1" fill-rule="nonzero"/></g><g clip-path="url(#ff78ff086d)"><path fill="#7a2f00" d="M 90.359375 11.015625 L 90.359375 12.308594 L 89.992188 12.308594 L 89.992188 11.382812 L 89.753906 12.308594 L 89.503906 12.308594 L 89.253906 11.382812 L 89.253906 12.308594 L 88.957031 12.308594 L 88.957031 11.015625 L 89.476562 11.015625 L 89.660156 11.699219 L 89.839844 11.015625 L 90.359375 11.015625 " fill-opacity="1" fill-rule="nonzero"/></g><g clip-path="url(#a3110251f2)"><path fill="#7a2f00" d="M 89.148438 10.027344 C 88.246094 10.027344 87.515625 10.761719 87.515625 11.660156 C 87.515625 12.5625 88.246094 13.292969 89.148438 13.292969 C 90.046875 13.292969 90.78125 12.5625 90.78125 11.660156 C 90.78125 10.761719 90.046875 10.027344 89.148438 10.027344 Z M 89.148438 13.613281 C 88.882812 13.613281 88.628906 13.558594 88.386719 13.457031 C 88.15625 13.359375 87.945312 13.21875 87.765625 13.039062 C 87.589844 12.863281 87.449219 12.652344 87.347656 12.421875 C 87.246094 12.179688 87.195312 11.925781 87.195312 11.660156 C 87.195312 11.398438 87.246094 11.140625 87.347656 10.902344 C 87.449219 10.667969 87.589844 10.460938 87.765625 10.28125 C 87.945312 10.101562 88.15625 9.960938 88.386719 9.863281 C 88.628906 9.761719 88.882812 9.710938 89.148438 9.710938 C 89.410156 9.710938 89.664062 9.761719 89.90625 9.863281 C 90.136719 9.960938 90.347656 10.101562 90.527344 10.28125 C 90.707031 10.460938 90.847656 10.667969 90.945312 10.902344 C 91.046875 11.140625 91.097656 11.398438 91.097656 11.660156 C 91.097656 11.925781 91.046875 12.179688 90.945312 12.421875 C 90.847656 12.652344 90.707031 12.863281 90.527344 13.039062 C 90.347656 13.21875 90.136719 13.359375 89.90625 13.457031 C 89.664062 13.558594 89.410156 13.613281 89.148438 13.613281 " fill-opacity="1" fill-rule="nonzero"/></g></svg>